<svg width="25" height="22" viewBox="0 0 25 22" fill="none" xmlns="http://www.w3.org/2000/svg">
<path d="M24.28 4.90001L10.68 4.90001M10.68 4.90001C10.68 3.1327 9.24734 1.70001 7.48003 1.70001C5.71272 1.70001 4.28003 3.1327 4.28003 4.90001M10.68 4.90001C10.68 6.66732 9.24734 8.10001 7.48003 8.10001C5.71272 8.10001 4.28003 6.66732 4.28003 4.90001M4.28003 4.90001L0.280029 4.90001M24.28 17.7L20.28 17.7M20.28 17.7C20.28 15.9327 18.8473 14.5 17.08 14.5C15.3127 14.5 13.88 15.9327 13.88 17.7M20.28 17.7C20.28 19.4673 18.8473 20.9 17.08 20.9C15.3127 20.9 13.88 19.4673 13.88 17.7M13.88 17.7L0.28003 17.7" stroke="#EAF0FF" stroke-width="2"/>
</svg>
